<svg width="101" height="50" viewBox="0 0 101 50" fill="none" xmlns="http://www.w3.org/2000/svg">
<path d="M100 46.5C100 34.1674 94.7322 22.34 85.3553 13.6195C75.9785 4.89909 63.2608 9.31083e-07 50 0C36.7392 -9.31083e-07 24.0215 4.89909 14.6447 13.6195C5.26785 22.34 2.00233e-06 34.1674 0 46.5L50 46.5H100Z" fill="#7C0B0B" fill-opacity="0.4"/>
<g filter="url(#filter0_d_1273_220)">
<path d="M9.53906 32.9688C9.77344 32.25 9.9974 31.5599 10.2109 30.8984C10.4245 30.237 10.612 29.625 10.7734 29.0625C10.9401 28.5 11.0703 28.0026 11.1641 27.5703C11.263 27.138 11.3177 26.7943 11.3281 26.5391C11.3906 26.2943 11.5 26.099 11.6562 25.9531C11.8177 25.8073 12.0026 25.7344 12.2109 25.7344C12.3359 25.7344 12.4427 25.763 12.5312 25.8203C12.6198 25.8776 12.6901 25.9531 12.7422 26.0469C12.7995 26.1406 12.8411 26.2474 12.8672 26.3672C12.8932 26.4818 12.9062 26.599 12.9062 26.7188C12.9062 26.8073 12.901 26.888 12.8906 26.9609C12.8802 27.0339 12.8672 27.1042 12.8516 27.1719C12.7318 27.651 12.5885 28.1458 12.4219 28.6562C12.2552 29.1667 12.0833 29.6849 11.9062 30.2109C11.7344 30.7318 11.5625 31.2552 11.3906 31.7812C11.2188 32.3073 11.0651 32.8229 10.9297 33.3281L10.7891 33.8594C10.7161 34.1302 10.6536 34.388 10.6016 34.6328C10.5495 34.8776 10.5234 35.0755 10.5234 35.2266C10.5234 35.3099 10.5391 35.3776 10.5703 35.4297C10.6016 35.4766 10.6615 35.5 10.75 35.5C10.9635 35.5 11.2135 35.4661 11.5 35.3984C11.7865 35.3255 12.0833 35.2396 12.3906 35.1406C12.6979 35.0365 13.0026 34.9245 13.3047 34.8047C13.612 34.6797 13.8932 34.5625 14.1484 34.4531C14.2839 34.3958 14.3984 34.3464 14.4922 34.3047C14.5911 34.263 14.7109 34.2135 14.8516 34.1562C14.9974 34.0938 15.1901 34.013 15.4297 33.9141C15.6693 33.8151 16 33.6771 16.4219 33.5C16.4948 33.474 16.5573 33.4531 16.6094 33.4375C16.6667 33.4167 16.7188 33.4062 16.7656 33.4062C16.849 33.4062 16.9193 33.4219 16.9766 33.4531C17.0391 33.4844 17.0859 33.526 17.1172 33.5781C17.1536 33.6302 17.1797 33.6901 17.1953 33.7578C17.2109 33.8255 17.2188 33.8932 17.2188 33.9609C17.2188 34.0755 17.2083 34.1771 17.1875 34.2656C17.1719 34.349 17.1536 34.4193 17.1328 34.4766C17.0703 34.5755 16.9896 34.6667 16.8906 34.75C16.7917 34.8281 16.6875 34.8984 16.5781 34.9609C16.4688 35.0182 16.362 35.0677 16.2578 35.1094C16.1536 35.151 16.0677 35.1823 16 35.2031C15.9167 35.2344 15.8047 35.276 15.6641 35.3281C15.5286 35.3802 15.3802 35.4375 15.2188 35.5C15.0573 35.5625 14.8906 35.6276 14.7188 35.6953C14.5469 35.7578 14.3854 35.8177 14.2344 35.875C14.0833 35.9323 13.9479 35.9844 13.8281 36.0312C13.7135 36.0729 13.6328 36.1016 13.5859 36.1172C13.362 36.2005 13.112 36.2943 12.8359 36.3984C12.5651 36.5026 12.2943 36.6016 12.0234 36.6953C11.7526 36.7891 11.4948 36.8698 11.25 36.9375C11.0104 37 10.8099 37.0312 10.6484 37.0312C10.4505 37.0312 10.2943 37.0156 10.1797 36.9844C10.0703 36.9531 9.97135 36.9115 9.88281 36.8594C9.79427 36.8021 9.70312 36.7344 9.60938 36.6562C9.52083 36.5781 9.40104 36.4922 9.25 36.3984C9.11458 36.3151 9.01823 36.2005 8.96094 36.0547C8.90365 35.9089 8.875 35.7526 8.875 35.5859C8.875 35.5026 8.88021 35.4062 8.89062 35.2969C8.90625 35.1875 8.92448 35.0729 8.94531 34.9531C8.96615 34.8333 8.98958 34.7161 9.01562 34.6016C9.04167 34.487 9.07031 34.3854 9.10156 34.2969L9.53906 32.9688ZM18.25 34.0078C18.3281 33.6901 18.4479 33.3542 18.6094 33C18.776 32.6406 18.9922 32.2786 19.2578 31.9141C19.5234 31.5495 19.8411 31.1927 20.2109 30.8438C20.5859 30.4948 21.0182 30.1693 21.5078 29.8672C21.5859 29.8203 21.7057 29.7708 21.8672 29.7188C22.0286 29.6615 22.1953 29.6276 22.3672 29.6172C22.5703 29.3984 22.8438 29.2891 23.1875 29.2891C23.5938 29.2891 23.9349 29.3932 24.2109 29.6016C24.4922 29.8047 24.724 30.0833 24.9062 30.4375C24.9635 30.5521 25.0156 30.6641 25.0625 30.7734C25.1146 30.8828 25.1562 31 25.1875 31.125C25.224 31.2448 25.2526 31.375 25.2734 31.5156C25.2943 31.6562 25.3047 31.8151 25.3047 31.9922C25.3047 32.4036 25.2396 32.8229 25.1094 33.25C24.9792 33.6771 24.7943 34.0938 24.5547 34.5C24.3151 34.9062 24.0234 35.2969 23.6797 35.6719C23.3411 36.0417 22.9635 36.375 22.5469 36.6719C22.2656 36.875 21.9531 37.0312 21.6094 37.1406C21.2708 37.2552 20.8906 37.3125 20.4688 37.3125C20.0677 37.3125 19.7188 37.2578 19.4219 37.1484C19.1302 37.0443 18.8854 36.8932 18.6875 36.6953C18.4948 36.4974 18.349 36.2604 18.25 35.9844C18.1562 35.7083 18.1094 35.401 18.1094 35.0625C18.1094 34.7344 18.1562 34.3828 18.25 34.0078ZM19.5469 34.1094C19.5156 34.2292 19.4922 34.3438 19.4766 34.4531C19.4661 34.5573 19.4609 34.6589 19.4609 34.7578C19.4609 34.9297 19.4818 35.0911 19.5234 35.2422C19.5703 35.388 19.6432 35.5156 19.7422 35.625C19.8411 35.7292 19.9635 35.8125 20.1094 35.875C20.2604 35.9323 20.4427 35.9609 20.6562 35.9609C21.0521 35.9609 21.4193 35.862 21.7578 35.6641C22.1016 35.4609 22.4062 35.2083 22.6719 34.9062C22.9375 34.6042 23.1589 34.2812 23.3359 33.9375C23.5182 33.5885 23.6458 33.2682 23.7188 32.9766C23.7656 32.7943 23.8047 32.6224 23.8359 32.4609C23.8724 32.2995 23.8906 32.151 23.8906 32.0156C23.8906 31.8802 23.8646 31.7552 23.8125 31.6406C23.7656 31.5208 23.7031 31.388 23.625 31.2422C23.5781 31.1536 23.5312 31.0625 23.4844 30.9688C23.4375 30.8698 23.3958 30.7734 23.3594 30.6797C23.3177 30.7526 23.2734 30.8177 23.2266 30.875C23.1797 30.9271 23.1094 30.9766 23.0156 31.0234C22.9219 31.0651 22.7943 31.1042 22.6328 31.1406C22.4714 31.1771 22.2604 31.2083 22 31.2344C21.8281 31.2917 21.6536 31.3802 21.4766 31.5C21.2995 31.6198 21.125 31.7604 20.9531 31.9219C20.7865 32.0833 20.625 32.2578 20.4688 32.4453C20.3177 32.6328 20.1797 32.8255 20.0547 33.0234C19.9349 33.2161 19.8281 33.4062 19.7344 33.5938C19.6458 33.7812 19.5833 33.9531 19.5469 34.1094ZM29.1484 37.3125C29.1224 37.3177 29.099 37.3203 29.0781 37.3203C29.0625 37.3255 29.0443 37.3281 29.0234 37.3281C28.9141 37.3281 28.8177 37.3047 28.7344 37.2578C28.651 37.2109 28.5781 37.151 28.5156 37.0781C28.4583 37.0104 28.4141 36.9375 28.3828 36.8594C28.3516 36.776 28.3359 36.6979 28.3359 36.625C28.3099 36.5156 28.2734 36.3594 28.2266 36.1562C28.1797 35.9531 28.125 35.724 28.0625 35.4688C28.0052 35.2135 27.9427 34.9401 27.875 34.6484C27.8125 34.3516 27.75 34.0547 27.6875 33.7578C27.625 33.4609 27.5677 33.1719 27.5156 32.8906C27.4635 32.6094 27.4193 32.3516 27.3828 32.1172C27.3568 31.9505 27.3281 31.7943 27.2969 31.6484C27.2656 31.5026 27.237 31.3646 27.2109 31.2344C27.1849 31.099 27.1615 30.9688 27.1406 30.8438C27.125 30.7135 27.1172 30.5833 27.1172 30.4531C27.1172 30.3073 27.1328 30.1693 27.1641 30.0391C27.1953 29.9036 27.2396 29.7865 27.2969 29.6875C27.3594 29.5833 27.4323 29.5 27.5156 29.4375C27.6042 29.375 27.7005 29.3438 27.8047 29.3438C28.013 29.3438 28.1771 29.3958 28.2969 29.5C28.4219 29.599 28.5182 29.7344 28.5859 29.9062C28.6536 30.0729 28.7005 30.2682 28.7266 30.4922C28.7578 30.7161 28.7812 30.9479 28.7969 31.1875C28.8177 31.4896 28.8516 31.8177 28.8984 32.1719C28.9453 32.5208 28.9974 32.8724 29.0547 33.2266C29.112 33.5755 29.1693 33.9141 29.2266 34.2422C29.2891 34.5651 29.3438 34.8516 29.3906 35.1016C29.5469 34.9401 29.8203 34.5807 30.2109 34.0234C30.4036 33.7526 30.5807 33.5026 30.7422 33.2734C30.9089 33.0443 31.0651 32.8255 31.2109 32.6172C31.3568 32.4036 31.4948 32.1927 31.625 31.9844C31.7552 31.776 31.8802 31.5599 32 31.3359C32.125 31.112 32.2448 30.875 32.3594 30.625C32.4792 30.3698 32.599 30.0885 32.7188 29.7812C32.7552 29.7188 32.7995 29.6536 32.8516 29.5859C32.9036 29.513 32.9635 29.4505 33.0312 29.3984C33.1042 29.3411 33.1849 29.2943 33.2734 29.2578C33.3672 29.2214 33.4714 29.2031 33.5859 29.2031C33.8255 29.2031 33.987 29.263 34.0703 29.3828C34.1589 29.5026 34.2031 29.6536 34.2031 29.8359C34.2031 30.0807 34.1589 30.3203 34.0703 30.5547C33.987 30.7839 33.8516 31.0312 33.6641 31.2969L30 36.4688C29.9271 36.625 29.8516 36.7552 29.7734 36.8594C29.6953 36.9635 29.6172 37.0469 29.5391 37.1094C29.4661 37.1719 29.3958 37.2188 29.3281 37.25C29.2604 37.2812 29.2005 37.3021 29.1484 37.3125ZM34.3594 33.9844C34.3594 33.7604 34.4193 33.5703 34.5391 33.4141C34.6589 33.2578 34.8177 33.1536 35.0156 33.1016C35.0729 32.987 35.1615 32.8333 35.2812 32.6406C35.401 32.4427 35.5495 32.2292 35.7266 32C35.9036 31.7708 36.1042 31.5417 36.3281 31.3125C36.5573 31.0781 36.8073 30.8672 37.0781 30.6797C37.3542 30.487 37.6484 30.3307 37.9609 30.2109C38.2786 30.0911 38.6146 30.0312 38.9688 30.0312C39.2708 30.0312 39.5339 30.0677 39.7578 30.1406C39.9818 30.2135 40.1667 30.3151 40.3125 30.4453C40.4583 30.5755 40.5677 30.7318 40.6406 30.9141C40.7135 31.0911 40.75 31.2839 40.75 31.4922C40.75 31.6693 40.7266 31.8385 40.6797 32C40.6068 32.2917 40.4714 32.5469 40.2734 32.7656C40.0755 32.9844 39.8411 33.1771 39.5703 33.3438C39.3047 33.5052 39.013 33.6406 38.6953 33.75C38.3828 33.8594 38.0677 33.9505 37.75 34.0234C37.4375 34.0964 37.1354 34.1536 36.8438 34.1953C36.5521 34.2318 36.2995 34.2604 36.0859 34.2812C36.0391 34.375 35.9974 34.4948 35.9609 34.6406C35.9297 34.7812 35.9141 34.9193 35.9141 35.0547C35.9141 35.3568 36.0339 35.5911 36.2734 35.7578C36.513 35.9245 36.8438 36.0078 37.2656 36.0078C37.5104 36.0078 37.7448 35.9818 37.9688 35.9297C38.1927 35.8724 38.4036 35.8021 38.6016 35.7188C38.8047 35.6302 38.9948 35.5365 39.1719 35.4375C39.349 35.3333 39.5104 35.2318 39.6562 35.1328C39.8438 35.0078 40.0208 34.9036 40.1875 34.8203C40.3594 34.7318 40.5104 34.6875 40.6406 34.6875C40.7708 34.6875 40.8542 34.7214 40.8906 34.7891C40.9271 34.8516 40.9453 34.9193 40.9453 34.9922C40.9453 35.0339 40.9427 35.0755 40.9375 35.1172C40.9375 35.1536 40.9349 35.1849 40.9297 35.2109C40.9036 35.3464 40.8516 35.4818 40.7734 35.6172C40.6953 35.7526 40.5964 35.8698 40.4766 35.9688C39.9349 36.3958 39.3776 36.7005 38.8047 36.8828C38.237 37.0651 37.6302 37.1562 36.9844 37.1562C36.8594 37.1562 36.7109 37.1484 36.5391 37.1328C36.3724 37.1172 36.1979 37.0859 36.0156 37.0391C35.8333 36.9922 35.6536 36.9245 35.4766 36.8359C35.2995 36.7474 35.1406 36.6302 35 36.4844C34.8646 36.3385 34.7526 36.1589 34.6641 35.9453C34.5807 35.7318 34.5391 35.474 34.5391 35.1719C34.5391 34.9271 34.5729 34.6536 34.6406 34.3516C34.5729 34.3411 34.5078 34.3073 34.4453 34.25C34.388 34.1875 34.3594 34.099 34.3594 33.9844ZM39.25 31.8203C39.2604 31.7943 39.2656 31.7708 39.2656 31.75C39.2656 31.7292 39.2656 31.7057 39.2656 31.6797C39.2656 31.5391 39.2135 31.4349 39.1094 31.3672C39.0052 31.2943 38.8802 31.2578 38.7344 31.2578C38.5052 31.2578 38.2786 31.3177 38.0547 31.4375C37.8359 31.5573 37.6276 31.7083 37.4297 31.8906C37.237 32.0677 37.0651 32.2604 36.9141 32.4688C36.763 32.6719 36.6458 32.8568 36.5625 33.0234C36.9375 32.9922 37.2812 32.9427 37.5938 32.875C37.9062 32.8021 38.1771 32.7135 38.4062 32.6094C38.6406 32.5 38.8281 32.3802 38.9688 32.25C39.1146 32.1146 39.2083 31.9714 39.25 31.8203ZM54.0078 28.5625C53.9661 28.625 53.9115 28.7344 53.8438 28.8906C53.7812 29.0417 53.7135 29.2188 53.6406 29.4219C53.5729 29.6198 53.5026 29.8307 53.4297 30.0547C53.362 30.2786 53.2969 30.4896 53.2344 30.6875C53.1771 30.8802 53.1276 31.0521 53.0859 31.2031C53.0443 31.349 53.0182 31.4453 53.0078 31.4922C52.9974 31.5495 52.9766 31.6354 52.9453 31.75C52.9193 31.8646 52.8958 31.9635 52.875 32.0469C53.4583 31.849 54.0339 31.6849 54.6016 31.5547C55.1745 31.4245 55.7474 31.3594 56.3203 31.3594C56.4089 31.3594 56.526 31.362 56.6719 31.3672C56.8177 31.3724 56.9609 31.3932 57.1016 31.4297C57.2422 31.4609 57.362 31.513 57.4609 31.5859C57.5651 31.6589 57.6172 31.763 57.6172 31.8984C57.6172 31.9036 57.6146 31.9375 57.6094 32C57.6042 32.0573 57.5885 32.125 57.5625 32.2031C57.5365 32.2812 57.4948 32.3594 57.4375 32.4375C57.3854 32.5156 57.3125 32.5729 57.2188 32.6094C57.1615 32.6042 57.1042 32.6016 57.0469 32.6016C56.9948 32.6016 56.9401 32.6016 56.8828 32.6016C56.513 32.6016 56.1406 32.6354 55.7656 32.7031C55.3958 32.7656 55.0208 32.8542 54.6406 32.9688C54.2656 33.0781 53.8906 33.2109 53.5156 33.3672C53.1406 33.5182 52.7656 33.6797 52.3906 33.8516L51.6016 37.2656C51.5911 37.3542 51.5469 37.4323 51.4688 37.5C51.3958 37.5729 51.3229 37.6094 51.25 37.6094H51.0625C50.8646 37.6094 50.7266 37.5286 50.6484 37.3672C50.5755 37.2057 50.5391 36.9974 50.5391 36.7422C50.5391 36.5286 50.5573 36.2969 50.5938 36.0469C50.6302 35.7917 50.6719 35.5443 50.7188 35.3047C50.7656 35.0651 50.8073 34.8464 50.8438 34.6484C50.8802 34.4505 50.8984 34.2995 50.8984 34.1953C50.8359 34.1068 50.7734 34.013 50.7109 33.9141C50.6484 33.8151 50.6172 33.6927 50.6172 33.5469C50.6172 33.3177 50.6771 33.1354 50.7969 33C50.9167 32.8646 51.0755 32.7318 51.2734 32.6016C51.2943 32.5859 51.3151 32.5573 51.3359 32.5156C51.362 32.474 51.3828 32.4271 51.3984 32.375C51.4193 32.3229 51.4349 32.2708 51.4453 32.2188C51.4609 32.1667 51.474 32.1224 51.4844 32.0859L51.8047 30.9297C51.9297 30.4766 52.0417 30.0807 52.1406 29.7422C52.2396 29.3984 52.3307 29.0911 52.4141 28.8203C52.4974 28.5495 52.5729 28.3073 52.6406 28.0938C52.7135 27.875 52.7839 27.6641 52.8516 27.4609C52.8724 27.3932 52.9062 27.2969 52.9531 27.1719C53.0052 27.0469 53.0651 26.9245 53.1328 26.8047C53.2057 26.6849 53.2865 26.5807 53.375 26.4922C53.4635 26.4036 53.5599 26.3594 53.6641 26.3594C53.8984 26.3594 54.0573 26.3802 54.1406 26.4219C54.2292 26.4583 54.2865 26.5078 54.3125 26.5703L54.3828 26.7422C54.4661 26.7318 54.5833 26.7135 54.7344 26.6875C54.8906 26.6562 55.0495 26.6224 55.2109 26.5859C55.3776 26.5495 55.5312 26.5156 55.6719 26.4844C55.8125 26.4479 55.9141 26.4193 55.9766 26.3984C56.3255 26.3047 56.6458 26.224 56.9375 26.1562C57.2292 26.0885 57.5052 26.0339 57.7656 25.9922C58.026 25.9453 58.276 25.9115 58.5156 25.8906C58.7552 25.8698 58.9974 25.8594 59.2422 25.8594C59.3568 25.8594 59.4635 25.8646 59.5625 25.875C59.6615 25.8854 59.7448 25.9062 59.8125 25.9375C59.8854 25.9635 59.9427 26.0052 59.9844 26.0625C60.026 26.1146 60.0469 26.1849 60.0469 26.2734C60.0469 26.3203 60.0365 26.3802 60.0156 26.4531C59.9948 26.5208 59.9609 26.5911 59.9141 26.6641C59.8672 26.7318 59.8021 26.7969 59.7188 26.8594C59.6406 26.9219 59.5417 26.9688 59.4219 27C59.3854 27.0104 59.3203 27.026 59.2266 27.0469C59.1328 27.0625 59.0234 27.0807 58.8984 27.1016C58.7786 27.1224 58.6484 27.1458 58.5078 27.1719C58.3724 27.1927 58.2422 27.2135 58.1172 27.2344C57.9193 27.2812 57.6953 27.3333 57.4453 27.3906C57.2005 27.4427 56.9427 27.5026 56.6719 27.5703C56.4062 27.638 56.138 27.7109 55.8672 27.7891C55.5964 27.8672 55.3411 27.9479 55.1016 28.0312C54.862 28.1146 54.6458 28.2005 54.4531 28.2891C54.2656 28.3776 54.1172 28.4688 54.0078 28.5625ZM59.0156 35.5703C59.0938 35.2682 59.1875 34.9167 59.2969 34.5156C59.4062 34.1146 59.5208 33.6901 59.6406 33.2422C59.7656 32.7943 59.8906 32.3359 60.0156 31.8672C60.1406 31.3984 60.2578 30.9427 60.3672 30.5C60.3724 30.4792 60.3906 30.4453 60.4219 30.3984C60.4531 30.3464 60.4974 30.2969 60.5547 30.25C60.612 30.1979 60.6849 30.1536 60.7734 30.1172C60.862 30.0807 60.9661 30.0625 61.0859 30.0625C61.1745 30.0625 61.2604 30.0729 61.3438 30.0938C61.4271 30.1094 61.5 30.1354 61.5625 30.1719C61.6302 30.2083 61.6823 30.2578 61.7188 30.3203C61.7604 30.3776 61.7812 30.4453 61.7812 30.5234C61.7812 30.5391 61.7812 30.5573 61.7812 30.5781C61.7812 30.5938 61.7786 30.6094 61.7734 30.625L61.5547 31.4531C61.3099 32.3802 61.0599 33.3099 60.8047 34.2422C60.5547 35.1745 60.3099 36.1094 60.0703 37.0469C60.0599 37.0781 60.0443 37.1172 60.0234 37.1641C60.0026 37.2109 59.974 37.2578 59.9375 37.3047C59.901 37.3516 59.8568 37.3906 59.8047 37.4219C59.7526 37.4531 59.6901 37.4688 59.6172 37.4688C59.4818 37.4688 59.362 37.4401 59.2578 37.3828C59.1536 37.3307 59.0651 37.263 58.9922 37.1797C58.9193 37.0964 58.8646 37.0052 58.8281 36.9062C58.7917 36.8073 58.7734 36.7135 58.7734 36.625C58.7734 36.599 58.7734 36.5755 58.7734 36.5547C58.7734 36.5339 58.7786 36.5104 58.7891 36.4844L59.0156 35.5703ZM61.0547 27.4844C61.0807 27.375 61.1276 27.2422 61.1953 27.0859C61.263 26.9297 61.3828 26.7891 61.5547 26.6641C61.638 26.6172 61.7396 26.5755 61.8594 26.5391C61.9792 26.4974 62.0651 26.4766 62.1172 26.4766C62.1693 26.4766 62.2214 26.4948 62.2734 26.5312C62.3307 26.5677 62.3802 26.6068 62.4219 26.6484C62.474 26.7005 62.5234 26.7578 62.5703 26.8203C62.7005 26.8307 62.7839 26.8776 62.8203 26.9609C62.862 27.0443 62.8828 27.1432 62.8828 27.2578C62.8828 27.3411 62.875 27.4167 62.8594 27.4844C62.8438 27.5521 62.8307 27.6068 62.8203 27.6484C62.7891 27.7578 62.7292 27.8594 62.6406 27.9531C62.5521 28.0417 62.4505 28.1198 62.3359 28.1875C62.2214 28.25 62.1016 28.2995 61.9766 28.3359C61.8516 28.3724 61.7422 28.3906 61.6484 28.3906C61.5286 28.3906 61.4349 28.3698 61.3672 28.3281C61.3047 28.2865 61.224 28.1979 61.125 28.0625C61.0677 27.9844 61.0339 27.9245 61.0234 27.8828C61.0182 27.8359 61.0156 27.7969 61.0156 27.7656C61.0156 27.7083 61.0182 27.6589 61.0234 27.6172C61.0339 27.5703 61.0443 27.526 61.0547 27.4844ZM68.625 30.5859C68.4427 30.5859 68.2474 30.6302 68.0391 30.7188C67.8307 30.8021 67.6146 30.9167 67.3906 31.0625C67.1667 31.2083 66.9375 31.375 66.7031 31.5625C66.474 31.7448 66.2474 31.9349 66.0234 32.1328C65.9089 32.2318 65.7995 32.3229 65.6953 32.4062C65.5911 32.4844 65.487 32.5443 65.3828 32.5859C65.3099 32.7057 65.2318 32.8646 65.1484 33.0625C65.0703 33.2552 64.9922 33.4688 64.9141 33.7031C64.8359 33.9323 64.7604 34.1693 64.6875 34.4141C64.6198 34.6536 64.5625 34.8776 64.5156 35.0859C64.4896 35.1953 64.4688 35.3021 64.4531 35.4062C64.4375 35.5104 64.4193 35.6224 64.3984 35.7422C64.3776 35.8568 64.3516 35.9818 64.3203 36.1172C64.2943 36.2526 64.2604 36.4036 64.2188 36.5703C64.1927 36.6693 64.151 36.75 64.0938 36.8125C64.0365 36.8698 63.9766 36.9141 63.9141 36.9453C63.8516 36.9766 63.7917 36.9948 63.7344 37C63.6771 37.0104 63.6328 37.0156 63.6016 37.0156C63.4036 37.0156 63.2422 36.9688 63.1172 36.875C62.9922 36.7812 62.9297 36.599 62.9297 36.3281C62.9297 36.2552 62.9323 36.1797 62.9375 36.1016C62.9427 36.0182 62.9583 35.9271 62.9844 35.8281C63.099 35.3333 63.2083 34.888 63.3125 34.4922C63.4219 34.0964 63.5312 33.7292 63.6406 33.3906C63.75 33.0521 63.8594 32.7344 63.9688 32.4375C64.0833 32.1354 64.1979 31.8333 64.3125 31.5312C64.4323 31.224 64.5547 30.9089 64.6797 30.5859C64.8099 30.2578 64.9479 29.8958 65.0938 29.5C65.125 29.4115 65.2057 29.3385 65.3359 29.2812C65.4714 29.2188 65.6146 29.1875 65.7656 29.1875C65.9635 29.1875 66.125 29.2318 66.25 29.3203C66.3802 29.4089 66.4453 29.5365 66.4453 29.7031C66.4453 29.7188 66.4401 29.7474 66.4297 29.7891C66.4193 29.8307 66.4036 29.875 66.3828 29.9219L66.0391 30.7344C66.2578 30.5625 66.4844 30.3906 66.7188 30.2188C66.9583 30.0469 67.2031 29.8932 67.4531 29.7578C67.7031 29.6172 67.9531 29.5052 68.2031 29.4219C68.4583 29.3333 68.7083 29.2891 68.9531 29.2891C69.4531 29.2891 69.8438 29.4245 70.125 29.6953C70.4062 29.9609 70.5469 30.375 70.5469 30.9375C70.5469 31.2604 70.4896 31.6276 70.375 32.0391C70.2656 32.4505 70.125 32.8932 69.9531 33.3672C69.7865 33.8359 69.6042 34.3307 69.4062 34.8516C69.2135 35.3672 69.0339 35.8932 68.8672 36.4297C68.8203 36.5755 68.7708 36.6979 68.7188 36.7969C68.6719 36.8958 68.6146 36.974 68.5469 37.0312C68.4792 37.0938 68.3984 37.138 68.3047 37.1641C68.2161 37.1901 68.1068 37.2031 67.9766 37.2031C67.7734 37.2031 67.6328 37.1641 67.5547 37.0859C67.4766 37.013 67.4375 36.8932 67.4375 36.7266C67.4375 36.5807 67.4583 36.4036 67.5 36.1953C67.5469 35.9818 67.6094 35.75 67.6875 35.5C67.7708 35.2448 67.8646 34.974 67.9688 34.6875C68.0781 34.401 68.1953 34.1094 68.3203 33.8125C68.4193 33.5729 68.5156 33.3333 68.6094 33.0938C68.7083 32.8542 68.7943 32.6224 68.8672 32.3984C68.9453 32.1745 69.0078 31.9609 69.0547 31.7578C69.1016 31.5547 69.125 31.3672 69.125 31.1953C69.125 31.0339 69.0885 30.8932 69.0156 30.7734C68.9479 30.6484 68.8177 30.5859 68.625 30.5859ZM71.8359 34.3203C71.9036 34.0391 71.9922 33.7578 72.1016 33.4766C72.2161 33.1953 72.3568 32.9167 72.5234 32.6406C72.6901 32.3646 72.888 32.0964 73.1172 31.8359C73.3464 31.5703 73.6146 31.3177 73.9219 31.0781C74.1302 30.9115 74.349 30.7552 74.5781 30.6094C74.8125 30.4583 75.0495 30.3281 75.2891 30.2188C75.5286 30.1094 75.7682 30.0234 76.0078 29.9609C76.2526 29.8932 76.4922 29.8594 76.7266 29.8594C76.8984 29.8594 77.0495 29.875 77.1797 29.9062C77.3151 29.9323 77.4427 29.9714 77.5625 30.0234C77.6146 29.8411 77.7526 29.3516 77.9766 28.5547C78.2057 27.7578 78.4844 26.6484 78.8125 25.2266C78.8698 25.0859 78.9505 24.9688 79.0547 24.875C79.1589 24.7812 79.2839 24.7344 79.4297 24.7344C79.5339 24.7344 79.6354 24.7448 79.7344 24.7656C79.8333 24.7812 79.9219 24.8177 80 24.875C80.0781 24.9271 80.1406 25 80.1875 25.0938C80.2344 25.1875 80.2578 25.3099 80.2578 25.4609L78.6875 31.7344C78.6406 31.9115 78.5964 32.151 78.5547 32.4531C78.513 32.75 78.474 33.0651 78.4375 33.3984C78.401 33.7318 78.3724 34.0625 78.3516 34.3906C78.3307 34.7135 78.3203 34.9922 78.3203 35.2266C78.3203 35.5182 78.2865 35.8073 78.2188 36.0938C78.1875 36.2188 78.1536 36.3255 78.1172 36.4141C78.0859 36.4974 78.0417 36.5677 77.9844 36.625C77.9271 36.6771 77.8542 36.7161 77.7656 36.7422C77.6823 36.763 77.5755 36.7734 77.4453 36.7734C77.2943 36.7734 77.1771 36.7578 77.0938 36.7266C77.0104 36.6953 76.9479 36.6536 76.9062 36.6016C76.8646 36.5443 76.8385 36.4818 76.8281 36.4141C76.8229 36.3411 76.8177 36.2656 76.8125 36.1875C76.8125 36.1042 76.8073 36.0208 76.7969 35.9375C76.7917 35.849 76.7708 35.7656 76.7344 35.6875C76.6719 35.7292 76.5859 35.7839 76.4766 35.8516C76.3672 35.9193 76.2552 35.9896 76.1406 36.0625C76.0312 36.1302 75.9271 36.1953 75.8281 36.2578C75.7292 36.3151 75.6562 36.3568 75.6094 36.3828C75.4896 36.4505 75.3542 36.5234 75.2031 36.6016C75.0521 36.6745 74.888 36.7448 74.7109 36.8125C74.5391 36.875 74.3568 36.9271 74.1641 36.9688C73.9766 37.0104 73.7865 37.0312 73.5938 37.0312C73.3594 37.0312 73.1302 36.9922 72.9062 36.9141C72.6875 36.8359 72.4896 36.7161 72.3125 36.5547C72.1406 36.3932 72.0026 36.1901 71.8984 35.9453C71.7943 35.6953 71.7422 35.4036 71.7422 35.0703C71.7422 34.9505 71.7474 34.8333 71.7578 34.7188C71.7734 34.599 71.7995 34.4661 71.8359 34.3203ZM73.1875 34.2578C73.1458 34.4141 73.125 34.5651 73.125 34.7109C73.125 34.862 73.138 35.0052 73.1641 35.1406C73.1901 35.2708 73.237 35.3854 73.3047 35.4844C73.3776 35.5833 73.4714 35.6641 73.5859 35.7266C73.7057 35.7839 73.8594 35.8125 74.0469 35.8125C74.151 35.8125 74.263 35.7943 74.3828 35.7578C74.5026 35.7214 74.6198 35.6771 74.7344 35.625C74.8542 35.5677 74.9635 35.5104 75.0625 35.4531C75.1667 35.3906 75.2552 35.3359 75.3281 35.2891C75.526 35.1589 75.7083 35.0312 75.875 34.9062C76.0469 34.7812 76.2005 34.6458 76.3359 34.5C76.4714 34.3542 76.5885 34.1927 76.6875 34.0156C76.7917 33.8333 76.875 33.625 76.9375 33.3906C76.9896 33.1823 77.0339 32.9922 77.0703 32.8203C77.112 32.6484 77.1484 32.4818 77.1797 32.3203C77.2109 32.1536 77.2396 31.9844 77.2656 31.8125C77.2917 31.6406 77.3177 31.4505 77.3438 31.2422C77.3177 31.2109 77.2812 31.1823 77.2344 31.1562C77.1927 31.125 77.1276 31.1094 77.0391 31.1094C76.8307 31.1094 76.6016 31.1458 76.3516 31.2188C76.1016 31.2865 75.8438 31.3854 75.5781 31.5156C75.3177 31.6458 75.0599 31.8047 74.8047 31.9922C74.5547 32.1797 74.3203 32.3906 74.1016 32.625C73.888 32.8542 73.7005 33.1068 73.5391 33.3828C73.3776 33.6589 73.2604 33.9505 73.1875 34.2578ZM80.5469 33.9844C80.5469 33.7604 80.6068 33.5703 80.7266 33.4141C80.8464 33.2578 81.0052 33.1536 81.2031 33.1016C81.2604 32.987 81.349 32.8333 81.4688 32.6406C81.5885 32.4427 81.737 32.2292 81.9141 32C82.0911 31.7708 82.2917 31.5417 82.5156 31.3125C82.7448 31.0781 82.9948 30.8672 83.2656 30.6797C83.5417 30.487 83.8359 30.3307 84.1484 30.2109C84.4661 30.0911 84.8021 30.0312 85.1562 30.0312C85.4583 30.0312 85.7214 30.0677 85.9453 30.1406C86.1693 30.2135 86.3542 30.3151 86.5 30.4453C86.6458 30.5755 86.7552 30.7318 86.8281 30.9141C86.901 31.0911 86.9375 31.2839 86.9375 31.4922C86.9375 31.6693 86.9141 31.8385 86.8672 32C86.7943 32.2917 86.6589 32.5469 86.4609 32.7656C86.263 32.9844 86.0286 33.1771 85.7578 33.3438C85.4922 33.5052 85.2005 33.6406 84.8828 33.75C84.5703 33.8594 84.2552 33.9505 83.9375 34.0234C83.625 34.0964 83.3229 34.1536 83.0312 34.1953C82.7396 34.2318 82.487 34.2604 82.2734 34.2812C82.2266 34.375 82.1849 34.4948 82.1484 34.6406C82.1172 34.7812 82.1016 34.9193 82.1016 35.0547C82.1016 35.3568 82.2214 35.5911 82.4609 35.7578C82.7005 35.9245 83.0312 36.0078 83.4531 36.0078C83.6979 36.0078 83.9323 35.9818 84.1562 35.9297C84.3802 35.8724 84.5911 35.8021 84.7891 35.7188C84.9922 35.6302 85.1823 35.5365 85.3594 35.4375C85.5365 35.3333 85.6979 35.2318 85.8438 35.1328C86.0312 35.0078 86.2083 34.9036 86.375 34.8203C86.5469 34.7318 86.6979 34.6875 86.8281 34.6875C86.9583 34.6875 87.0417 34.7214 87.0781 34.7891C87.1146 34.8516 87.1328 34.9193 87.1328 34.9922C87.1328 35.0339 87.1302 35.0755 87.125 35.1172C87.125 35.1536 87.1224 35.1849 87.1172 35.2109C87.0911 35.3464 87.0391 35.4818 86.9609 35.6172C86.8828 35.7526 86.7839 35.8698 86.6641 35.9688C86.1224 36.3958 85.5651 36.7005 84.9922 36.8828C84.4245 37.0651 83.8177 37.1562 83.1719 37.1562C83.0469 37.1562 82.8984 37.1484 82.7266 37.1328C82.5599 37.1172 82.3854 37.0859 82.2031 37.0391C82.0208 36.9922 81.8411 36.9245 81.6641 36.8359C81.487 36.7474 81.3281 36.6302 81.1875 36.4844C81.0521 36.3385 80.9401 36.1589 80.8516 35.9453C80.7682 35.7318 80.7266 35.474 80.7266 35.1719C80.7266 34.9271 80.7604 34.6536 80.8281 34.3516C80.7604 34.3411 80.6953 34.3073 80.6328 34.25C80.5755 34.1875 80.5469 34.099 80.5469 33.9844ZM85.4375 31.8203C85.4479 31.7943 85.4531 31.7708 85.4531 31.75C85.4531 31.7292 85.4531 31.7057 85.4531 31.6797C85.4531 31.5391 85.401 31.4349 85.2969 31.3672C85.1927 31.2943 85.0677 31.2578 84.9219 31.2578C84.6927 31.2578 84.4661 31.3177 84.2422 31.4375C84.0234 31.5573 83.8151 31.7083 83.6172 31.8906C83.4245 32.0677 83.2526 32.2604 83.1016 32.4688C82.9505 32.6719 82.8333 32.8568 82.75 33.0234C83.125 32.9922 83.4688 32.9427 83.7812 32.875C84.0938 32.8021 84.3646 32.7135 84.5938 32.6094C84.8281 32.5 85.0156 32.3802 85.1562 32.25C85.3021 32.1146 85.3958 31.9714 85.4375 31.8203ZM88.7188 36.1953C88.7865 35.8307 88.8646 35.4297 88.9531 34.9922C89.0417 34.5547 89.1328 34.112 89.2266 33.6641C89.3203 33.2161 89.4115 32.776 89.5 32.3438C89.5885 31.9115 89.6641 31.5156 89.7266 31.1562C89.7214 31.1042 89.7188 31.0599 89.7188 31.0234C89.7188 30.9818 89.7188 30.9375 89.7188 30.8906C89.7188 30.7292 89.7292 30.5677 89.75 30.4062C89.7708 30.2448 89.7995 30.0964 89.8359 29.9609C89.8932 29.763 89.9557 29.6302 90.0234 29.5625C90.0964 29.4896 90.2109 29.4531 90.3672 29.4531C90.5182 29.4531 90.638 29.4844 90.7266 29.5469C90.8203 29.6042 90.8932 29.6823 90.9453 29.7812C90.9974 29.8802 91.0312 29.9948 91.0469 30.125C91.0625 30.25 91.0703 30.3802 91.0703 30.5156C91.0703 30.5885 91.0677 30.6693 91.0625 30.7578C91.0573 30.8464 91.0547 30.9167 91.0547 30.9688C91.2005 30.8177 91.3542 30.6641 91.5156 30.5078C91.6823 30.3464 91.8568 30.2031 92.0391 30.0781C92.2266 29.9479 92.4219 29.8411 92.625 29.7578C92.8333 29.6745 93.0495 29.6328 93.2734 29.6328C93.362 29.6328 93.4479 29.6406 93.5312 29.6562C93.6198 29.6719 93.7083 29.6927 93.7969 29.7188C93.901 29.7448 94.0078 29.7812 94.1172 29.8281C94.2318 29.8698 94.3411 29.9297 94.4453 30.0078C94.6172 30.138 94.7604 30.3021 94.875 30.5C94.9948 30.6927 95.0547 30.8906 95.0547 31.0938C95.0547 31.1719 95.0391 31.2578 95.0078 31.3516C94.9766 31.4401 94.9323 31.5234 94.875 31.6016C94.8229 31.6745 94.7604 31.737 94.6875 31.7891C94.6146 31.8359 94.5339 31.8594 94.4453 31.8594C94.3568 31.8594 94.2474 31.8385 94.1172 31.7969C93.9922 31.75 93.888 31.6901 93.8047 31.6172C93.7682 31.5859 93.7292 31.5417 93.6875 31.4844C93.651 31.4271 93.6146 31.3698 93.5781 31.3125C93.5469 31.2552 93.5156 31.2031 93.4844 31.1562C93.4583 31.1042 93.4375 31.0703 93.4219 31.0547C93.3958 31.0495 93.3672 31.0469 93.3359 31.0469C93.3047 31.0417 93.276 31.0391 93.25 31.0391C92.9844 31.0391 92.7318 31.1068 92.4922 31.2422C92.2526 31.3776 92.0286 31.5443 91.8203 31.7422C91.612 31.9349 91.4193 32.1432 91.2422 32.3672C91.0703 32.5859 90.9193 32.7839 90.7891 32.9609C90.6849 33.3828 90.5677 33.8333 90.4375 34.3125C90.3125 34.7865 90.1875 35.2839 90.0625 35.8047V36C90.0625 36.1562 90.0573 36.3151 90.0469 36.4766C90.0365 36.638 90.0052 36.7812 89.9531 36.9062C89.8958 36.9844 89.8125 37.0495 89.7031 37.1016C89.599 37.1589 89.4766 37.1875 89.3359 37.1875C89.1172 37.1875 88.9531 37.1172 88.8438 36.9766C88.7344 36.8307 88.6797 36.6615 88.6797 36.4688C88.6797 36.3802 88.6927 36.2891 88.7188 36.1953Z" fill="#7C0B0B"/>
</g>
<defs>
<filter id="filter0_d_1273_220" x="3.875" y="23.7344" width="96.1797" height="22.875" filterUnits="userSpaceOnUse" color-interpolation-filters="sRGB">
<feFlood flood-opacity="0" result="BackgroundImageFix"/>
<feColorMatrix in="SourceAlpha" type="matrix" values="0 0 0 0 0 0 0 0 0 0 0 0 0 0 0 0 0 0 127 0" result="hardAlpha"/>
<feOffset dy="4"/>
<feGaussianBlur stdDeviation="2.5"/>
<feComposite in2="hardAlpha" operator="out"/>
<feColorMatrix type="matrix" values="0 0 0 0 0.4875 0 0 0 0 0.0446875 0 0 0 0 0.0446875 0 0 0 1 0"/>
<feBlend mode="normal" in2="BackgroundImageFix" result="effect1_dropShadow_1273_220"/>
<feBlend mode="normal" in="SourceGraphic" in2="effect1_dropShadow_1273_220" result="shape"/>
</filter>
</defs>
</svg>
