<svg width="60" height="50" viewBox="0 0 60 50" fill="none" xmlns="http://www.w3.org/2000/svg">
<path d="M3.33555 46.8749L0.235673 45.7186C0.0141791 46.2411 -0.0528551 46.81 0.0416359 47.3652C0.136127 47.9204 0.388644 48.4415 0.772567 48.8734C1.15649 49.3053 1.6576 49.6321 2.22307 49.8194C2.78853 50.0067 3.39742 50.0474 3.98553 49.9374L3.33555 46.8749ZM19.0216 43.9499L20.6015 41.1968L19.5449 40.6655L18.3716 40.8843L19.0216 43.9499ZM8.74867 34.1155L11.8486 35.2718L12.3919 33.978L11.7386 32.7312L8.74867 34.1155ZM53.3336 24.9999C53.3336 35.1437 43.824 43.7499 31.5678 43.7499V49.9999C47.0372 49.9999 60 39.0187 60 24.9999H53.3336ZM9.8053 24.9999C9.8053 14.8562 19.3183 6.24999 31.5711 6.24999V0C16.1017 0 3.13556 10.9812 3.13556 24.9999H9.8053ZM31.5711 6.24999C43.824 6.24999 53.3336 14.8562 53.3336 24.9999H60C60 10.9812 47.0405 0 31.5711 0V6.24999ZM31.5678 43.7499C27.5513 43.7499 23.8114 42.8124 20.6015 41.1968L17.4417 46.6999C21.7876 48.8792 26.6393 50.013 31.5678 49.9999V43.7499ZM3.98553 49.9374L19.6716 47.0124L18.3716 40.8843L2.68558 43.8093L3.98553 49.9405V49.9374ZM11.7386 32.7312C10.4655 30.3287 9.80604 27.6826 9.8053 24.9999H3.13556C3.13556 28.7499 4.07552 32.3062 5.75546 35.4999L11.7386 32.7312ZM5.65213 32.9593L0.235673 45.7218L6.42876 48.028L11.8419 35.2687L5.64879 32.9593H5.65213Z" fill="#7C0B0B"/>
<path d="M20.0017 28.125C21.8425 28.125 23.3349 26.7259 23.3349 25C23.3349 23.2741 21.8425 21.875 20.0017 21.875C18.1608 21.875 16.6685 23.2741 16.6685 25C16.6685 26.7259 18.1608 28.125 20.0017 28.125Z" fill="#7C0B0B" fill-opacity="0.4"/>
<path d="M31.6677 28.125C33.5086 28.125 35.0009 26.7259 35.0009 25C35.0009 23.2741 33.5086 21.875 31.6677 21.875C29.8268 21.875 28.3345 23.2741 28.3345 25C28.3345 26.7259 29.8268 28.125 31.6677 28.125Z" fill="#7C0B0B" fill-opacity="0.4"/>
<path d="M43.3342 28.125C45.1751 28.125 46.6674 26.7259 46.6674 25C46.6674 23.2741 45.1751 21.875 43.3342 21.875C41.4933 21.875 40.001 23.2741 40.001 25C40.001 26.7259 41.4933 28.125 43.3342 28.125Z" fill="#7C0B0B" fill-opacity="0.4"/>
</svg>
