<svg width="142" height="30" viewBox="0 0 142 30" fill="none" xmlns="http://www.w3.org/2000/svg">
<circle cx="15" cy="15" r="14.5" stroke="white"/>
<path d="M17.2167 7C16.0082 7 14.8492 7.4005 13.9947 8.1134C13.1402 8.82629 12.6601 9.79318 12.6601 10.8014V12.9178H10.2217C10.0995 12.9178 10 13 10 13.1027V15.8973C10 15.9992 10.0985 16.0822 10.2217 16.0822H12.6601V21.8151C12.6601 21.917 12.7586 22 12.8818 22H16.2315C16.3537 22 16.4532 21.9178 16.4532 21.8151V16.0822H18.9133C19.0148 16.0822 19.1034 16.0247 19.1281 15.9425L19.9655 13.1479C19.9738 13.1207 19.9744 13.0922 19.9675 13.0647C19.9606 13.0372 19.9462 13.0113 19.9255 12.9891C19.9048 12.9669 19.8783 12.949 19.848 12.9366C19.8177 12.9243 19.7844 12.9178 19.7507 12.9178H16.4532V10.8014C16.4532 10.7177 16.473 10.6349 16.5113 10.5576C16.5497 10.4803 16.6059 10.4101 16.6768 10.351C16.7477 10.2918 16.8319 10.2449 16.9246 10.2129C17.0172 10.1809 17.1165 10.1644 17.2167 10.1644H19.7783C19.9005 10.1644 20 10.0822 20 9.97945V7.18493C20 7.08301 19.9015 7 19.7783 7H17.2167Z" fill="white"/>
<circle cx="71" cy="15" r="14.5" stroke="white"/>
<path d="M68.7169 20C74.3775 20 77.4731 16.1525 77.4731 12.8158C77.4731 12.7066 77.4731 12.5979 77.4644 12.4897C78.0668 12.1321 78.5868 11.6893 79 11.1821C78.4384 11.3865 77.8426 11.5206 77.2325 11.58C77.8748 11.2643 78.3554 10.7679 78.585 10.1832C77.981 10.4772 77.3203 10.6845 76.6312 10.796C76.1672 10.3911 75.5535 10.1231 74.8851 10.0332C74.2167 9.94341 73.5308 10.0368 72.9336 10.299C72.3364 10.5613 71.8612 10.9776 71.5815 11.4838C71.3017 11.9899 71.2331 12.5575 71.3863 13.0989C70.1628 13.0486 68.9658 12.7877 67.8732 12.3333C66.7805 11.8789 65.8165 11.241 65.0438 10.4611C64.6503 11.017 64.5299 11.675 64.7069 12.3012C64.884 12.9274 65.3453 13.4747 65.9969 13.8317C65.5071 13.8197 65.0279 13.7111 64.6 13.5153V13.5476C64.6002 14.1305 64.8461 14.6955 65.2961 15.1466C65.746 15.5977 66.3723 15.9073 67.0687 16.0228C66.6157 16.1241 66.1404 16.1388 65.6794 16.0659C65.876 16.5676 66.2588 17.0064 66.7743 17.3208C67.2898 17.6352 67.9122 17.8096 68.5544 17.8196C67.9163 18.231 67.1856 18.5351 66.4041 18.7146C65.6226 18.8941 64.8057 18.9454 64 18.8657C65.4072 19.6069 67.0447 20.0001 68.7169 19.9985" fill="white"/>
<circle cx="127" cy="15" r="14.5" stroke="white"/>
<path d="M124.35 7H130.65C133.05 7 135 8.95 135 11.35V17.65C135 18.8037 134.542 19.9101 133.726 20.7259C132.91 21.5417 131.804 22 130.65 22H124.35C121.95 22 120 20.05 120 17.65V11.35C120 10.1963 120.458 9.08987 121.274 8.27409C122.09 7.4583 123.196 7 124.35 7ZM124.2 8.5C123.484 8.5 122.797 8.78446 122.291 9.29081C121.784 9.79716 121.5 10.4839 121.5 11.2V17.8C121.5 19.2925 122.707 20.5 124.2 20.5H130.8C131.516 20.5 132.203 20.2155 132.709 19.7092C133.216 19.2028 133.5 18.5161 133.5 17.8V11.2C133.5 9.7075 132.292 8.5 130.8 8.5H124.2ZM131.438 9.625C131.686 9.625 131.925 9.72377 132.1 9.89959C132.276 10.0754 132.375 10.3139 132.375 10.5625C132.375 10.8111 132.276 11.0496 132.1 11.2254C131.925 11.4012 131.686 11.5 131.438 11.5C131.189 11.5 130.95 11.4012 130.775 11.2254C130.599 11.0496 130.5 10.8111 130.5 10.5625C130.5 10.3139 130.599 10.0754 130.775 9.89959C130.95 9.72377 131.189 9.625 131.438 9.625ZM127.5 10.75C128.495 10.75 129.448 11.1451 130.152 11.8483C130.855 12.5516 131.25 13.5054 131.25 14.5C131.25 15.4946 130.855 16.4484 130.152 17.1517C129.448 17.8549 128.495 18.25 127.5 18.25C126.505 18.25 125.552 17.8549 124.848 17.1517C124.145 16.4484 123.75 15.4946 123.75 14.5C123.75 13.5054 124.145 12.5516 124.848 11.8483C125.552 11.1451 126.505 10.75 127.5 10.75ZM127.5 12.25C126.903 12.25 126.331 12.4871 125.909 12.909C125.487 13.331 125.25 13.9033 125.25 14.5C125.25 15.0967 125.487 15.669 125.909 16.091C126.331 16.5129 126.903 16.75 127.5 16.75C128.097 16.75 128.669 16.5129 129.091 16.091C129.513 15.669 129.75 15.0967 129.75 14.5C129.75 13.9033 129.513 13.331 129.091 12.909C128.669 12.4871 128.097 12.25 127.5 12.25Z" fill="white"/>
</svg>
