<svg width="50" height="50" viewBox="0 0 50 50" fill="none" xmlns="http://www.w3.org/2000/svg">
<path fill-rule="evenodd" clip-rule="evenodd" d="M25 47.4999C37.4263 47.4999 47.5 37.4262 47.5 25C47.5 12.5737 37.4263 2.5 25 2.5C12.5737 2.5 2.5 12.5737 2.5 25C2.5 37.4262 12.5737 47.4999 25 47.4999ZM25 49.9999C38.8075 49.9999 50 38.8074 50 25C50 11.1925 38.8075 0 25 0C11.1925 0 0 11.1925 0 25C0 38.8074 11.1925 49.9999 25 49.9999Z" fill="#7C0B0B"/>
<path d="M10 39.5375C10 38.2462 10.965 37.155 12.25 37.0125C21.8938 35.945 28.15 36.0412 37.7725 37.0362C38.253 37.0867 38.7084 37.276 39.0831 37.581C39.4578 37.886 39.7356 38.2936 39.8825 38.7539C40.0294 39.2141 40.039 39.7072 39.9103 40.1729C39.7815 40.6386 39.52 41.0567 39.1575 41.3762C27.8013 51.2749 21.3113 51.1387 10.8 41.3862C10.2875 40.9112 10 40.235 10 39.5375Z" fill="#7C0B0B"/>
<path fill-rule="evenodd" clip-rule="evenodd" d="M37.6438 38.2787C28.0975 37.2912 21.9313 37.1987 12.3863 38.255C12.0721 38.2916 11.7824 38.4428 11.5728 38.6797C11.3631 38.9165 11.2482 39.2224 11.25 39.5387C11.25 39.8962 11.3988 40.235 11.65 40.47C16.86 45.3024 20.8075 47.4862 24.6663 47.4999C28.5388 47.5137 32.6988 45.3474 38.3363 40.435C38.5154 40.2755 38.6443 40.0675 38.7074 39.8362C38.7705 39.6049 38.765 39.3603 38.6917 39.132C38.6183 38.9037 38.4802 38.7017 38.2942 38.5504C38.1082 38.3992 37.8822 38.304 37.6438 38.2787ZM12.1125 35.77C21.8575 34.6912 28.205 34.7887 37.9025 35.7925C38.6254 35.8679 39.3106 36.1525 39.8742 36.6114C40.4378 37.0703 40.8554 37.6835 41.0759 38.3761C41.2964 39.0686 41.3101 39.8104 41.1155 40.5107C40.9208 41.2109 40.5262 41.8393 39.98 42.3187C34.2613 47.3037 29.4988 50.0187 24.6588 49.9999C19.805 49.9824 15.2525 47.2212 9.95126 42.3025C9.5717 41.9489 9.26912 41.5209 9.06244 41.0452C8.85575 40.5694 8.74939 40.0562 8.75001 39.5375C8.74818 38.6055 9.09026 37.7056 9.71071 37.0102C10.3312 36.3148 11.1864 35.874 12.1125 35.77Z" fill="#7C0B0B"/>
<path d="M35 20C35 22.6521 33.9464 25.1957 32.0711 27.071C30.1957 28.9464 27.6522 30 25 30C22.3478 30 19.8043 28.9464 17.9289 27.071C16.0536 25.1957 15 22.6521 15 20C15 17.3478 16.0536 14.8043 17.9289 12.9289C19.8043 11.0536 22.3478 10 25 10C27.6522 10 30.1957 11.0536 32.0711 12.9289C33.9464 14.8043 35 17.3478 35 20Z" fill="#7C0B0B"/>
<path fill-rule="evenodd" clip-rule="evenodd" d="M25 27.5C26.9891 27.5 28.8968 26.7098 30.3033 25.3033C31.7098 23.8968 32.5 21.9891 32.5 20C32.5 18.0109 31.7098 16.1032 30.3033 14.6967C28.8968 13.2902 26.9891 12.5 25 12.5C23.0109 12.5 21.1032 13.2902 19.6967 14.6967C18.2902 16.1032 17.5 18.0109 17.5 20C17.5 21.9891 18.2902 23.8968 19.6967 25.3033C21.1032 26.7098 23.0109 27.5 25 27.5ZM25 30C27.6522 30 30.1957 28.9464 32.0711 27.071C33.9464 25.1957 35 22.6521 35 20C35 17.3478 33.9464 14.8043 32.0711 12.9289C30.1957 11.0536 27.6522 10 25 10C22.3478 10 19.8043 11.0536 17.9289 12.9289C16.0536 14.8043 15 17.3478 15 20C15 22.6521 16.0536 25.1957 17.9289 27.071C19.8043 28.9464 22.3478 30 25 30Z" fill="#7C0B0B"/>
</svg>
